<?xml version="1.0" encoding="UTF-8" standalone="no"?>
<!-- Created with Inkscape (http://www.inkscape.org/) -->

<svg
   width="267.99969"
   height="55.315109"
   viewBox="0 0 267.99969 55.315109"
   version="1.1"
   id="svg1"
   xmlns="http://www.w3.org/2000/svg"
   xmlns:svg="http://www.w3.org/2000/svg">
  <defs
     id="defs1" />
  <path
     style="fill:#ffffff;fill-opacity:1;stroke-width:0.353484"
     d="m 62.280139,54.9177 c -0.77652,-0.17374 -5.62094,-0.46703 -10.765373,-0.65173 -13.58724,-0.48789 -15.40483,-0.95725 -21.36351,-5.51715 -4.4913,-3.43697 -6.45555,-4.60355 -9.18037,-5.45224 -2.59185,-0.80727 -8.50609,-1.3649 -15.5177796,-1.46311 -2.135431,-0.0299 -4.3211712,-0.155 -4.85720123,-0.27799 -0.9377595,-0.21517 -0.8977295,-0.26363 1.05889023,-1.28164 2.788451,-1.45082 6.328211,-5.0909 7.921631,-8.14613 0.7107996,-1.36292 2.3398596,-5.55514 3.6201196,-9.31603 1.28026,-3.76089 2.70592,-7.5865 3.16814,-8.50135 C 21.076986,4.9836001 31.163866,0.0015302 45.337916,2.03302e-7 58.659579,-9.997967e-4 71.034249,4.8440801 76.521459,12.21047 c 3.09086,4.14937 4.0755,7.36028 5.34776,17.4392 1.07001,8.47665 2.32841,11.93196 8.283499,22.74484 l 1.608461,2.9206 -14.03459,-0.0407 c -7.71903,-0.0225 -14.66993,-0.18295 -15.44645,-0.3567 z"
     id="path1337" />
  <text
     xml:space="preserve"
     style="font-style:normal;font-variant:normal;font-weight:normal;font-stretch:normal;font-size:61.6321px;font-family:'Eras Medium ITC';-inkscape-font-specification:'Eras Medium ITC';fill:#ffffff;fill-opacity:1;stroke-width:1.1556"
     x="107.17847"
     y="48.542652"
     id="text1"><tspan
       id="tspan1"
       x="107.17847"
       y="48.542652"
       style="font-style:normal;font-variant:normal;font-weight:normal;font-stretch:normal;font-family:'Eras Medium ITC';-inkscape-font-specification:'Eras Medium ITC';stroke-width:1.1556">19.RH</tspan></text>
</svg>
